<?xml version="1.0" encoding="utf-8"?>
<!-- Generator: Adobe Illustrator 26.3.0, SVG Export Plug-In . SVG Version: 6.00 Build 0)  -->
<svg version="1.1" id="Layer_1" xmlns="http://www.w3.org/2000/svg" xmlns:xlink="http://www.w3.org/1999/xlink" x="0px" y="0px"
	 viewBox="0 0 450 90.1" style="enable-background:new 0 0 450 90.1;" xml:space="preserve">
<style type="text/css">
	.st0{fill:#FADADD;}
</style>
<g id="Layer_2_00000029735003175879487430000018106416958885933758_">
	<g id="Layer_1-2">
		<path class="st0" d="M230.1,43.5H111.8V0h118.3V43.5z M126.4,32.9l1.3-5.4h8.8l1.3,5.4h4.8l-6.5-24.7h-8.1l-6.5,24.7H126.4z
			 M131.9,11.1h0.6l3,12.1h-6.6L131.9,11.1z M150.3,32.9V23c-0.1-1,0.3-2.1,1.1-2.8c0.8-0.6,1.8-0.9,2.8-0.9h2.2v-4h-2.1
			c-0.7,0-1.5,0.2-2.1,0.5c-0.6,0.3-1.1,0.9-1.3,1.6h-0.6v-2h-4.4v17.5H150.3z M171.8,32.5c1.2-0.5,2.2-1.4,2.9-2.4
			c0.7-1,1.3-2.2,1.6-3.4l-4.3-1c-0.1,1-0.6,2-1.3,2.7c-0.8,0.7-1.9,1.1-3.1,1c-0.8,0-1.7-0.2-2.4-0.6c-0.7-0.4-1.3-1-1.7-1.7
			c-0.4-0.9-0.6-1.8-0.6-2.8V24c0-1,0.2-1.9,0.6-2.8c0.4-0.7,1-1.3,1.7-1.7c0.7-0.4,1.6-0.6,2.4-0.6c0.8,0,1.5,0.1,2.2,0.5
			c0.6,0.3,1.1,0.8,1.4,1.3c0.3,0.6,0.6,1.2,0.6,1.9l4.3-0.9c-0.2-1.3-0.7-2.4-1.5-3.5c-0.8-1-1.8-1.9-2.9-2.4
			c-1.4-0.6-2.8-0.9-4.3-0.9c-1.6,0-3.2,0.4-4.6,1.1c-1.4,0.7-2.5,1.7-3.3,3c-0.8,1.5-1.3,3.2-1.2,4.9v0.5c-0.1,1.7,0.4,3.4,1.2,4.9
			c0.8,1.3,1.9,2.4,3.3,3.1c1.4,0.7,3,1.1,4.6,1.1C168.9,33.4,170.4,33.1,171.8,32.5L171.8,32.5z M184.4,32.9V24
			c-0.1-1.4,0.3-2.7,1.1-3.8c0.8-0.9,2-1.4,3.2-1.4c1-0.1,2,0.3,2.8,1c0.7,0.8,1.1,1.9,1,3v10.1h4.4V22.5c0-1.3-0.3-2.6-0.8-3.8
			c-0.5-1.1-1.4-2-2.4-2.6c-1.1-0.6-2.3-1-3.6-0.9c-0.9,0-1.7,0.1-2.6,0.4c-0.6,0.2-1.1,0.5-1.6,0.9c-0.4,0.3-0.7,0.7-0.9,1.1h-0.6
			V8.2h-4.5v24.7H184.4z M206,12.6c0.5-0.5,0.8-1.3,0.8-2.1c0-0.8-0.3-1.5-0.8-2c-0.6-0.5-1.3-0.8-2.1-0.8c-0.7,0-1.5,0.3-2,0.8
			c-0.5,0.5-0.8,1.2-0.8,2c0,0.8,0.3,1.5,0.8,2.1c0.5,0.5,1.3,0.8,2,0.8C204.7,13.4,205.4,13.1,206,12.6z M206.2,32.9V15.4h-4.4
			v17.5L206.2,32.9z M220.2,12.6l-1.8-1.8l-3.3,3.1l-0.7-1.6c-0.3-1-1.2-1.6-2.2-1.6c-1,0-1.9,0.5-2.4,1.4l-1,1.5l2,1.3l1-1.6h0.2
			l1,2.4l-4.1,3.8l1.8,1.8l3.4-3.2l0.7,1.6c0.2,0.5,0.5,0.9,0.9,1.3c0.4,0.3,0.9,0.4,1.4,0.4c1.1,0,2.2-0.6,2.6-1.7l0.7-1.3
			l-2.1-1.1l-0.8,1.5h-0.2l-1.1-2.5L220.2,12.6z"/>
		<path class="st0" d="M111.7,89.4V53h6.8v15H132V53h6.9v36.4H132V74.3h-13.5v15.1H111.7z"/>
		<path class="st0" d="M153.9,90.1c-1.7,0-3.4-0.3-4.9-1c-1.4-0.6-2.6-1.6-3.4-2.8c-0.9-1.3-1.3-2.9-1.3-4.5
			c-0.1-1.6,0.4-3.1,1.3-4.4c0.9-1.2,2.1-2.2,3.5-2.7c1.6-0.6,3.4-0.9,5.2-0.9h7.1v-1.4c0-1.1-0.4-2.2-1.1-3c-1-0.9-2.3-1.3-3.6-1.2
			c-1.3-0.1-2.6,0.3-3.6,1.1c-0.8,0.8-1.4,1.8-1.6,2.9l-6-2c0.4-1.3,1.1-2.5,2-3.6c1-1.2,2.3-2.1,3.7-2.7c1.8-0.7,3.7-1.1,5.6-1
			c2.9-0.1,5.7,0.8,8,2.5c2,1.7,3,4.2,3,7.4v9.6c0,1,0.5,1.6,1.5,1.6h2.1v5.4h-4.4c-1.1,0-2.2-0.3-3.2-0.9c-0.8-0.6-1.3-1.5-1.2-2.5
			l0,0h-1c-0.2,0.6-0.6,1.1-0.9,1.6c-0.6,0.8-1.4,1.4-2.3,1.8C156.8,89.9,155.4,90.2,153.9,90.1z M155.1,84.8
			c1.6,0.1,3.2-0.5,4.5-1.5c1.2-1,1.8-2.5,1.7-4.1v-0.5h-6.6c-1-0.1-2,0.2-2.9,0.8c-0.7,0.5-1,1.3-1,2.2c0,0.9,0.4,1.7,1.1,2.3
			C152.9,84.6,154,84.9,155.1,84.8z"/>
		<path class="st0" d="M187.5,90.1c-2.3,0-4.7-0.5-6.8-1.6c-2-1-3.7-2.6-4.8-4.5c-1.2-2.2-1.8-4.7-1.8-7.2v-0.7
			c-0.1-2.5,0.5-5,1.8-7.1c1.1-1.9,2.8-3.5,4.8-4.5c2.1-1,4.4-1.6,6.8-1.5c2.2-0.1,4.3,0.4,6.3,1.3c1.7,0.8,3.2,2,4.3,3.6
			c1.1,1.5,1.8,3.3,2.2,5.1l-6.3,1.3c-0.1-1-0.4-1.9-0.9-2.8c-0.5-0.8-1.2-1.5-2.1-2c-1-0.5-2.1-0.8-3.3-0.7c-1.2,0-2.5,0.3-3.6,0.9
			c-1.1,0.6-1.9,1.5-2.5,2.5c-0.6,1.3-1,2.7-0.9,4.1v0.5c0,1.4,0.3,2.9,0.9,4.1c0.6,1.1,1.4,2,2.5,2.5c1.1,0.6,2.3,0.9,3.6,0.9
			c1.6,0.1,3.3-0.4,4.5-1.5c1.1-1.1,1.8-2.5,2-4l6.3,1.5c-0.4,1.8-1.2,3.5-2.3,5c-1.1,1.5-2.6,2.7-4.3,3.6
			C191.9,89.7,189.7,90.2,187.5,90.1z"/>
		<path class="st0" d="M205.8,89.4V53h6.5v20.1h0.9l8.5-9.5h8.5l-11.9,12.5l12.3,13.3h-8.4l-9-10.2h-0.9v10.2H205.8z"/>
		<path class="st0" d="M258.1,89.4c-1.5,0.1-3-0.5-4.1-1.6c-1.1-1.1-1.7-2.7-1.6-4.2V69H246v-5.4h6.4v-8h6.6v8h7V69h-7v13.4
			c0,1,0.5,1.6,1.5,1.6h5v5.4H258.1z"/>
		<path class="st0" d="M271.9,89.4V53h6.5v13.8h0.9c0.3-0.6,0.8-1.2,1.3-1.7c0.7-0.6,1.5-1.1,2.4-1.4c1.2-0.4,2.5-0.6,3.8-0.5
			c1.8,0,3.7,0.4,5.3,1.4c1.5,0.9,2.7,2.2,3.5,3.8c0.9,1.7,1.3,3.7,1.3,5.6v15.4h-6.5V74.5c0.1-1.6-0.4-3.2-1.4-4.4
			c-1.1-1-2.6-1.5-4.1-1.4c-1.8-0.1-3.5,0.6-4.7,2c-1.2,1.6-1.8,3.6-1.7,5.6v13.1H271.9z"/>
		<path class="st0" d="M315.6,90.1c-2.4,0-4.7-0.5-6.8-1.6c-1.9-1.1-3.5-2.7-4.6-4.6c-1.1-2.2-1.7-4.6-1.6-7v-0.6
			c-0.1-2.4,0.5-4.8,1.6-7c1-1.9,2.6-3.6,4.5-4.6c2.1-1.1,4.4-1.7,6.7-1.6c2.3-0.1,4.6,0.5,6.6,1.7c1.9,1.1,3.4,2.7,4.4,4.7
			c1.1,2.1,1.6,4.5,1.5,6.9v2.2h-18.7c0,1.7,0.7,3.2,2,4.3c1.3,1.1,2.9,1.7,4.6,1.7c1.5,0.1,2.9-0.3,4-1.2c0.8-0.7,1.5-1.6,2-2.7
			l5.4,2.8c-0.6,1-1.3,2-2.1,2.9c-1,1.1-2.3,2-3.7,2.7C319.7,89.8,317.7,90.2,315.6,90.1z M309.4,73.5h12c-0.1-1.4-0.7-2.6-1.8-3.5
			c-2.5-1.8-5.8-1.8-8.3,0C310.2,70.9,309.6,72.2,309.4,73.5L309.4,73.5z"/>
		<path class="st0" d="M362.5,90.1c-1.9,0.1-3.7-0.3-5.3-1.2c-1.1-0.7-2.1-1.6-2.8-2.7h-0.9v3.1H347V53h6.5v13.6h0.9
			c0.4-0.7,0.9-1.3,1.5-1.8c0.8-0.6,1.6-1.1,2.5-1.4c1.3-0.4,2.6-0.6,3.9-0.5c4.2,0,8.1,2.3,10,6c1.1,2.2,1.7,4.7,1.6,7.2v0.8
			c0.1,2.5-0.5,4.9-1.6,7.2C370.5,87.8,366.7,90.1,362.5,90.1L362.5,90.1z M360.5,84.4c1.9,0,3.7-0.7,5-1.9c1.4-1.5,2.2-3.6,2-5.7
			v-0.5c0.1-2.1-0.6-4.1-2-5.7c-2.9-2.6-7.2-2.6-10.1,0c-1.4,1.5-2.1,3.6-2,5.7v0.5c-0.2,2.1,0.6,4.2,2,5.7
			C356.8,83.8,358.6,84.5,360.5,84.4L360.5,84.4z"/>
		<path class="st0" d="M392.4,90.1c-2.4,0-4.8-0.5-6.9-1.6c-2-1-3.7-2.6-4.8-4.5c-1.2-2.2-1.8-4.6-1.8-7.1v-0.8
			c-0.1-2.5,0.5-4.9,1.8-7.1c1.1-1.9,2.8-3.5,4.8-4.5c4.4-2.1,9.4-2.1,13.8,0c2,1,3.7,2.6,4.8,4.5c1.2,2.2,1.8,4.6,1.8,7.1v0.8
			c0.1,2.5-0.5,4.9-1.8,7.1c-1.1,1.9-2.8,3.5-4.8,4.5C397.2,89.6,394.8,90.1,392.4,90.1z M392.4,84.3c1.9,0,3.7-0.7,5-2
			c1.4-1.5,2.1-3.5,2-5.6v-0.5c0.1-2.1-0.6-4.1-2-5.6c-2.8-2.6-7.2-2.6-10,0c-1.4,1.5-2.1,3.5-2,5.6v0.5c-0.1,2.1,0.6,4.1,2,5.6
			C388.7,83.6,390.5,84.3,392.4,84.3z"/>
		<path class="st0" d="M408,89.4l9.4-13l-9.2-12.8h7.6l5.9,8.6h0.9l5.9-8.6h7.6l-9.2,12.8l9.3,13h-7.7l-5.9-8.7h-0.9l-5.9,8.7
			L408,89.4z"/>
		<path class="st0" d="M445.1,90.1c-1.3,0-2.6-0.5-3.5-1.4c-1.9-2-1.9-5.1,0-7.1c2-1.8,5-1.8,7,0c1.9,2,1.9,5.1,0,7.1
			C447.6,89.6,446.4,90.1,445.1,90.1z"/>
		<path class="st0" d="M61,62.3H27.8V29H61V62.3z M33.3,56.7h22.2V34.5H33.3V56.7z"/>
		<path class="st0" d="M61,34.5H27.8V1.2H61V34.5z M33.3,29h22.2V6.8H33.3V29z"/>
		<path class="st0" d="M88.8,90H55.5V56.7h33.3V90z M61,84.5h22.2V62.3H61V84.5z"/>
		<path class="st0" d="M61,90H27.8V56.7H61V90z M33.3,84.5h22.2V62.3H33.3V84.5z"/>
		<path class="st0" d="M33.3,90H0V56.7h33.3V90z M5.6,84.5h22.2V62.3H5.6V84.5z"/>
		<path class="st0" d="M0,29v33.3h33.3V29H0z M22.1,49.7c-0.4,1-1.4,1.7-2.5,1.7c-0.5,0-0.9-0.1-1.3-0.4c-0.4-0.3-0.7-0.8-0.9-1.2
			l-1.1-2.6l-4.1,3.9l-1.3-1.4l4.7-4.4L14,41.8h-1l-1,1.6l-1.4-0.9l0.9-1.3c0.5-0.9,1.4-1.4,2.3-1.4c1,0,1.9,0.6,2.1,1.5l1.1,2.6
			l4-3.7l1.3,1.4l-4.5,4.2l1.5,3.6h1l0.8-1.5l1.5,0.8L22.1,49.7z"/>
	</g>
</g>
</svg>
