<svg xmlns="http://www.w3.org/2000/svg" viewBox="0 0 450 90.09"><defs><style>.cls-1{fill:#131516;}.cls-2{fill:#fff;}</style></defs><g id="Layer_2" data-name="Layer 2"><g id="Layer_1-2" data-name="Layer 1"><path class="cls-1" d="M230.05,43.52H111.78V0H230.05ZM126.41,32.92l1.34-5.44h8.84l1.34,5.44h4.81l-6.5-24.74h-8.13L121.6,32.92Zm5.44-21.81h.64l3,12.06h-6.64Zm18.46,21.81V23a3.38,3.38,0,0,1,1.09-2.77,4.3,4.3,0,0,1,2.8-.9h2.19v-4h-2.12a4.35,4.35,0,0,0-2.11.49,2.8,2.8,0,0,0-1.29,1.56h-.63v-2h-4.39V32.92Zm21.46-.39a7.58,7.58,0,0,0,2.91-2.42,9.59,9.59,0,0,0,1.58-3.41l-4.32-1a5,5,0,0,1-1.32,2.74,4.18,4.18,0,0,1-3.06,1,5,5,0,0,1-2.42-.59,4.06,4.06,0,0,1-1.7-1.73,5.87,5.87,0,0,1-.62-2.81V24a5.89,5.89,0,0,1,.62-2.81,4.11,4.11,0,0,1,1.7-1.73,5,5,0,0,1,2.42-.59,4.58,4.58,0,0,1,2.24.5,3.55,3.55,0,0,1,1.4,1.34,5.2,5.2,0,0,1,.64,1.91l4.31-.92a8.38,8.38,0,0,0-1.47-3.48,7.67,7.67,0,0,0-2.91-2.42,9.73,9.73,0,0,0-4.32-.89A10.06,10.06,0,0,0,162.84,16,8,8,0,0,0,159.57,19a9.37,9.37,0,0,0-1.2,4.88v.49a9.37,9.37,0,0,0,1.2,4.88,8,8,0,0,0,3.27,3.08,9.93,9.93,0,0,0,4.61,1.06A9.73,9.73,0,0,0,171.77,32.53Zm12.62.39V24a5.76,5.76,0,0,1,1.13-3.8,3.92,3.92,0,0,1,3.18-1.36,3.73,3.73,0,0,1,2.78,1,4.11,4.11,0,0,1,1,3V32.92h4.45V22.46a8.36,8.36,0,0,0-.84-3.84A6.53,6.53,0,0,0,193.67,16a6.81,6.81,0,0,0-3.59-.93,7.41,7.41,0,0,0-2.56.37,4.68,4.68,0,0,0-1.61.93,4,4,0,0,0-.88,1.14h-.64V8.18h-4.46V32.92ZM206,12.56a2.71,2.71,0,0,0,.81-2.05,2.71,2.71,0,0,0-.81-2,2.85,2.85,0,0,0-2.05-.78,2.89,2.89,0,0,0-2,.78,2.69,2.69,0,0,0-.83,2,2.69,2.69,0,0,0,.83,2.05,2.89,2.89,0,0,0,2,.78A2.85,2.85,0,0,0,206,12.56Zm.17,20.36V15.39h-4.45V32.92Zm14-20.32-1.75-1.84-3.26,3.05-.66-1.56a2.34,2.34,0,0,0-2.22-1.61,2.74,2.74,0,0,0-2.4,1.4l-1,1.53,2,1.27,1-1.58h.25l1,2.45L209,19.56l1.75,1.84,3.4-3.2.68,1.59a2.77,2.77,0,0,0,.9,1.26,2.35,2.35,0,0,0,1.41.39,2.71,2.71,0,0,0,2.58-1.69l.66-1.32-2.06-1.07-.81,1.48h-.25l-1.07-2.53Z"/><path class="cls-1" d="M111.68,89.37V53h6.85V68H132V53h6.85V89.37H132V74.26H118.53V89.37Z"/><path class="cls-1" d="M153.92,90.09a12.15,12.15,0,0,1-4.93-1,8,8,0,0,1-3.45-2.8,7.71,7.71,0,0,1-1.27-4.49,7.48,7.48,0,0,1,1.27-4.44,7.8,7.8,0,0,1,3.53-2.7,13.89,13.89,0,0,1,5.16-.9h7.06V72.34a4.09,4.09,0,0,0-1.14-3,4.89,4.89,0,0,0-3.63-1.17,5.15,5.15,0,0,0-3.64,1.12,5.27,5.27,0,0,0-1.55,2.88l-6-2a10.33,10.33,0,0,1,2-3.6A9.78,9.78,0,0,1,151,63.91a13.93,13.93,0,0,1,5.63-1,11.94,11.94,0,0,1,8,2.54c2,1.7,3,4.15,3,7.37v9.6c0,1,.49,1.56,1.46,1.56h2.07v5.4h-4.36a5.13,5.13,0,0,1-3.16-.94,3,3,0,0,1-1.25-2.49v0h-1a6.67,6.67,0,0,1-.94,1.63,6,6,0,0,1-2.28,1.79A9.64,9.64,0,0,1,153.92,90.09Zm1.14-5.29a6.54,6.54,0,0,0,4.49-1.53,5.16,5.16,0,0,0,1.74-4.08v-.52H154.7a4.64,4.64,0,0,0-2.85.78,2.56,2.56,0,0,0-1,2.18,2.8,2.8,0,0,0,1.09,2.29A5,5,0,0,0,155.06,84.8Z"/><path class="cls-1" d="M187.5,90.09a14.58,14.58,0,0,1-6.77-1.56,11.59,11.59,0,0,1-4.8-4.51,13.7,13.7,0,0,1-1.77-7.16v-.73A13.7,13.7,0,0,1,175.93,69a11.68,11.68,0,0,1,4.8-4.52,14.7,14.7,0,0,1,6.77-1.55,14.16,14.16,0,0,1,6.33,1.3,11.29,11.29,0,0,1,4.28,3.55,12.41,12.41,0,0,1,2.16,5.11l-6.34,1.35a7.19,7.19,0,0,0-.93-2.8,5.19,5.19,0,0,0-2.05-2,6.7,6.7,0,0,0-3.29-.73,7.38,7.38,0,0,0-3.56.86,6,6,0,0,0-2.49,2.54,8.53,8.53,0,0,0-.91,4.12v.52a8.55,8.55,0,0,0,.91,4.13,6,6,0,0,0,2.49,2.54,7.38,7.38,0,0,0,3.56.86,6.07,6.07,0,0,0,4.48-1.53,7.14,7.14,0,0,0,2-4l6.33,1.5a14.24,14.24,0,0,1-2.31,5,11.29,11.29,0,0,1-4.28,3.55A14.16,14.16,0,0,1,187.5,90.09Z"/><path class="cls-1" d="M205.82,89.37V53h6.54V73.12h.93l8.52-9.5h8.51L218.43,76.08l12.3,13.29h-8.41l-9-10.23h-.93V89.37Z"/><path class="cls-1" d="M258.13,89.37A5.55,5.55,0,0,1,254,87.78a5.69,5.69,0,0,1-1.59-4.23V69H246v-5.4h6.43v-8H259v8H266V69H259V82.41c0,1,.49,1.56,1.46,1.56h5v5.4Z"/><path class="cls-1" d="M271.94,89.37V53h6.54V66.79h.93a6.09,6.09,0,0,1,1.3-1.66,7.11,7.11,0,0,1,2.36-1.38,11.13,11.13,0,0,1,3.76-.54,10,10,0,0,1,5.27,1.37,9.35,9.35,0,0,1,3.5,3.79A12,12,0,0,1,296.85,74V89.37h-6.54V74.52a6,6,0,0,0-1.43-4.36,5.48,5.48,0,0,0-4.07-1.45,5.74,5.74,0,0,0-4.67,2,8.46,8.46,0,0,0-1.66,5.58V89.37Z"/><path class="cls-1" d="M315.64,90.09a13.72,13.72,0,0,1-6.78-1.63,11.52,11.52,0,0,1-4.56-4.62,14.43,14.43,0,0,1-1.64-7v-.63a14.62,14.62,0,0,1,1.61-7,11.36,11.36,0,0,1,4.52-4.62,13.48,13.48,0,0,1,6.74-1.63,12.54,12.54,0,0,1,6.59,1.68,11.69,11.69,0,0,1,4.36,4.67A14.78,14.78,0,0,1,328,76.18v2.23H309.31a5.75,5.75,0,0,0,2,4.31,6.59,6.59,0,0,0,4.56,1.66,5.8,5.8,0,0,0,4.05-1.19,8.37,8.37,0,0,0,2-2.65l5.35,2.81a17.4,17.4,0,0,1-2.1,2.93,11.62,11.62,0,0,1-3.66,2.7A13.28,13.28,0,0,1,315.64,90.09Zm-6.28-16.55h12A5.15,5.15,0,0,0,319.61,70a7.1,7.1,0,0,0-8.33,0A5.77,5.77,0,0,0,309.36,73.54Z"/><path class="cls-1" d="M362.5,90.09a10,10,0,0,1-5.34-1.19,8.49,8.49,0,0,1-2.76-2.65h-.93v3.12H347V53h6.53V66.58h.94A7.52,7.52,0,0,1,356,64.82a7.71,7.71,0,0,1,2.54-1.38,12.28,12.28,0,0,1,3.92-.54,11.14,11.14,0,0,1,10,6,14.82,14.82,0,0,1,1.61,7.16v.83a14.82,14.82,0,0,1-1.61,7.16,11.14,11.14,0,0,1-10,6Zm-2-5.71a7,7,0,0,0,5-1.94,7.53,7.53,0,0,0,2-5.69v-.52a7.59,7.59,0,0,0-2-5.68,7.54,7.54,0,0,0-10.1,0,7.56,7.56,0,0,0-2,5.68v.52a7.57,7.57,0,0,0,2,5.69A7,7,0,0,0,360.53,84.38Z"/><path class="cls-1" d="M392.39,90.09a15,15,0,0,1-6.9-1.56A11.58,11.58,0,0,1,380.67,84a13.59,13.59,0,0,1-1.77-7.11v-.83A13.59,13.59,0,0,1,380.67,69a11.67,11.67,0,0,1,4.82-4.52,16.16,16.16,0,0,1,13.81,0A11.67,11.67,0,0,1,404.12,69a13.59,13.59,0,0,1,1.77,7.11v.83A13.59,13.59,0,0,1,404.12,84a11.58,11.58,0,0,1-4.82,4.51A15,15,0,0,1,392.39,90.09Zm0-5.81a6.81,6.81,0,0,0,5-2,7.49,7.49,0,0,0,2-5.58v-.52a7.51,7.51,0,0,0-2-5.57,7.37,7.37,0,0,0-10,0,7.48,7.48,0,0,0-2,5.57v.52a7.49,7.49,0,0,0,2,5.58A6.81,6.81,0,0,0,392.39,84.28Z"/><path class="cls-1" d="M408,89.37l9.35-13-9.24-12.77h7.57l5.87,8.57h.93l5.87-8.57h7.57l-9.23,12.77,9.34,13h-7.68l-5.87-8.67h-.93l-5.87,8.67Z"/><path class="cls-1" d="M445.07,90.09a4.88,4.88,0,0,1-3.5-1.37,5.13,5.13,0,0,1,0-7.11,5.17,5.17,0,0,1,7,0,5.21,5.21,0,0,1,0,7.11A4.85,4.85,0,0,1,445.07,90.09Z"/><path class="cls-1" d="M61.05,62.27H27.75V29h33.3ZM33.3,56.72H55.5V34.52H33.3Z"/><path class="cls-1" d="M61.05,34.52H27.75V1.22h33.3ZM33.3,29H55.5V6.77H33.3Z"/><path class="cls-1" d="M88.8,90H55.5V56.72H88.8ZM61.05,84.47h22.2V62.27H61.05Z"/><path class="cls-1" d="M61.05,90H27.75V56.72h33.3ZM33.3,84.47H55.5V62.27H33.3Z"/><path class="cls-1" d="M33.3,90H0V56.72H33.3ZM5.55,84.47h22.2V62.27H5.55Z"/><path class="cls-1" d="M33.3,62.27H0V29H33.3Z"/><path class="cls-2" d="M22.13,49.72A2.67,2.67,0,0,1,19.6,51.4,2.17,2.17,0,0,1,18.26,51a2.65,2.65,0,0,1-.87-1.24l-1.1-2.57-4.15,3.91-1.31-1.36,4.71-4.4L14,41.83h-.95l-1,1.64-1.41-.91.88-1.33a2.65,2.65,0,0,1,2.34-1.39A2.2,2.2,0,0,1,16,41.39L17.06,44l4-3.74,1.31,1.36L17.84,45.8l1.54,3.65h1l.85-1.55,1.47.76Z"/></g></g></svg>