<svg xmlns="http://www.w3.org/2000/svg" viewBox="0 0 51.9 51.9"><defs><style>.cls-1{fill:#fadadd;}</style></defs><g id="Layer_2" data-name="Layer 2"><g id="Layer_2-2" data-name="Layer 2"><g id="Layer_1-2" data-name="Layer 1"><path class="cls-1" d="M24.33,0h3.24c.87.11,1.74.19,2.6.34A25.33,25.33,0,0,1,45.65,9.12a25.13,25.13,0,0,1,5.89,21A25,25,0,0,1,41.61,46.6a25.21,25.21,0,0,1-19.16,5A25,25,0,0,1,8.81,45.4,25.61,25.61,0,0,1,.4,30.47c-.17-1-.27-1.93-.4-2.9V24.33c.08-.64.14-1.27.24-1.9A25.56,25.56,0,0,1,7.44,7.8a25.4,25.4,0,0,1,14-7.4C22.42.23,23.38.13,24.33,0Zm-2.4,26.86v15h6.26v-15H32.4L33,21.55H28.18V18.67c0-1.3.4-1.7,1.7-1.7h2.95V11.86a.73.73,0,0,0-.2,0c-1.62,0-3.24-.09-4.86,0-3.27.18-5.2,1.82-5.69,4.91a32.41,32.41,0,0,0-.16,4.19c0,.2,0,.39,0,.65H19v5.29Z"/></g></g></g></svg>