<svg xmlns="http://www.w3.org/2000/svg" viewBox="0 0 51.88 51.91"><defs><style>.cls-1{fill:#fadadd;}</style></defs><g id="Layer_2" data-name="Layer 2"><g id="Layer_2-2" data-name="Layer 2"><g id="Layer_1-2" data-name="Layer 1"><path class="cls-1" d="M51.88,24.33v3.24c0,.33-.09.67-.13,1A25.44,25.44,0,0,1,46.06,42.3a25.49,25.49,0,0,1-15.61,9.2c-1,.18-1.93.27-2.9.41H24.31a2.74,2.74,0,0,0-.39-.09A25.05,25.05,0,0,1,9,45.55,25.35,25.35,0,0,1,.12,23.34,24.56,24.56,0,0,1,6.48,8.79,25.38,25.38,0,0,1,25.49,0,24.62,24.62,0,0,1,39.2,3.66,25.56,25.56,0,0,1,51.48,21.48C51.66,22.42,51.75,23.38,51.88,24.33ZM25.93,11v.18c-2.12,0-4.25,0-6.38,0a8.86,8.86,0,0,0-4.84,1.43,8,8,0,0,0-3.54,6.88c-.09,4.32-.06,8.64,0,13a8.47,8.47,0,0,0,1.42,4.74,8,8,0,0,0,6.87,3.54c4.33.09,8.65.07,13,0a8.32,8.32,0,0,0,5.74-2.21,8.4,8.4,0,0,0,2.56-6.19c.09-3.55.09-7.1.09-10.64a29.89,29.89,0,0,0-.18-3.14,7.83,7.83,0,0,0-7.31-7.29C30.86,11.06,28.39,11.06,25.93,11Z"/><path class="cls-1" d="M13.66,25.89c.07-2.23.08-4.52.22-6.79a5.14,5.14,0,0,1,2.76-4.54,6.94,6.94,0,0,1,3.28-.74c4.26,0,8.51-.05,12.77.09A5.11,5.11,0,0,1,38,19.2c.12,4.5.11,9,0,13.52A5.12,5.12,0,0,1,32.71,38q-6.75.18-13.52,0c-3.18-.08-5.13-2.12-5.32-5.32C13.73,30.43,13.73,28.18,13.66,25.89ZM25.92,18.3A7.65,7.65,0,1,0,33.57,26,7.64,7.64,0,0,0,25.92,18.3Zm8,1.47A1.78,1.78,0,1,0,32.1,18,1.76,1.76,0,0,0,33.89,19.77Z"/><path class="cls-1" d="M30.89,25.92a5,5,0,1,1-5-4.94A5,5,0,0,1,30.89,25.92Z"/></g></g></g></svg>